<?xml version="1.0" encoding="UTF-8" standalone="no"?>
<svg
   width="87.874016pt"
   height="87.874016pt"
   viewBox="0 0 87.874017 87.874013"
   version="1.1"
   id="svg11381"
   sodipodi:docname="bevel_small.svg"
   inkscape:version="1.1 (c4e8f9ed74, 2021-05-24)"
   xmlns:inkscape="http://www.inkscape.org/namespaces/inkscape"
   xmlns:sodipodi="http://sodipodi.sourceforge.net/DTD/sodipodi-0.dtd"
   xmlns:xlink="http://www.w3.org/1999/xlink"
   xmlns="http://www.w3.org/2000/svg"
   xmlns:svg="http://www.w3.org/2000/svg">
  <sodipodi:namedview
     id="namedview11383"
     pagecolor="#ffffff"
     bordercolor="#666666"
     borderopacity="1.0"
     inkscape:pageshadow="2"
     inkscape:pageopacity="0.0"
     inkscape:pagecheckerboard="0"
     inkscape:document-units="pt"
     showgrid="false"
     fit-margin-top="0"
     fit-margin-left="0"
     fit-margin-right="0"
     fit-margin-bottom="0"
     inkscape:zoom="4.1873627"
     inkscape:cx="63.285657"
     inkscape:cy="126.09369"
     inkscape:window-width="1555"
     inkscape:window-height="991"
     inkscape:window-x="26"
     inkscape:window-y="23"
     inkscape:window-maximized="0"
     inkscape:current-layer="svg11381"
     inkscape:snap-bbox="true"
     inkscape:snap-object-midpoints="true"
     inkscape:snap-center="true"
     inkscape:bbox-nodes="true"
     inkscape:bbox-paths="true"
     inkscape:snap-bbox-midpoints="true"
     inkscape:snap-bbox-edge-midpoints="true"
     inkscape:snap-intersection-paths="true"
     inkscape:object-paths="true"
     inkscape:snap-smooth-nodes="true"
     inkscape:snap-midpoints="true"
     inkscape:snap-page="true" />
  <defs
     id="defs11376">
    <clipPath
       id="clip2">
      <rect
         x="0"
         y="0"
         width="1227"
         height="2055"
         id="rect11362" />
    </clipPath>
    <g
       id="surface5"
       clip-path="url(#clip2)">
      <path
         style="fill:none;stroke:#000000;stroke-width:0.3;stroke-linecap:round;stroke-linejoin:round;stroke-miterlimit:10;stroke-opacity:1"
         d="m 19.634696,-694.6592 v 9.99904 l 9.311404,-3.64491 3.246658,8.29028 3.241146,8.28615 3.234255,8.27649 3.225988,8.26685 3.217719,8.25583 3.208073,8.24343 3.197048,8.22964 3.186025,8.21586 3.173622,8.19933 3.159841,8.18279 3.146061,8.16626 3.130903,8.14558 3.114366,8.12767 3.09783,8.10562 3.081294,8.08357 0.0041,0.01 3.057867,8.05188 0.0041,0.011 3.039952,8.02569 0.0041,0.011 3.017904,8.00227 0.0041,0.011 2.998611,7.97609 0.0041,0.011 2.976563,7.94852 0.0041,0.0124 2.953136,7.91958 0.0055,0.0138 2.928331,7.89065 0.0055,0.0138 2.904909,7.86171 0.006,0.0138 2.8801,7.83139 0.006,0.0152 2.85392,7.79832 0.006,0.0152 2.82773,7.76663 0.006,0.0165 2.79879,7.73355 0.007,0.0179 2.77124,7.6991 0.007,0.0179 2.74091,7.66465 0.007,0.0193 2.71198,7.62882 0.007,0.0207 2.68167,7.59299 0.007,0.0207 2.65134,7.55717 0.007,0.022 2.61827,7.51996 0.007,0.022 2.5852,7.48274 0.008,0.0221 2.55213,7.44554 0.008,0.0234 2.51629,7.40558 0.01,0.0248 2.48185,7.36699 0.008,0.0262 2.44739,7.32703 0.008,0.0262 2.41019,7.28707 0.01,0.0276 2.37435,7.24711 0.008,0.0289 2.33578,7.20714 0.011,0.0303 2.29719,7.16442 0.01,0.0317 2.2586,7.12446 0.011,0.0331 2.21864,7.08312 0.01,0.0331 2.18006,7.04177 0.01,0.0345 2.13871,7.00043 0.011,0.0372 2.09737,6.95909 0.011,0.0372 2.05465,6.91775 0.011,0.0386 2.01332,6.87503 0.011,0.0414 1.96922,6.83369 0.0124,0.0413 1.92512,6.79373 0.0124,0.0427 1.8824,6.75238 0.0124,0.0455 1.83692,6.71104 0.0124,0.0469 1.79145,6.67108 0.0124,0.0469 1.74597,6.63112 0.0138,0.0496 1.69912,6.59116 0.0138,0.051 1.65365,6.55119 0.0124,0.0524 1.60679,6.51261 0.0124,0.0551 1.55993,6.47402 0.0124,0.0565 1.5117,6.43682 0.0124,0.0565 1.46347,6.40098 0.0124,0.0593 1.41386,6.36378 0.0138,0.0606 1.36426,6.32795 0.0138,0.062 1.31465,6.2935 0.0138,0.0648 1.26504,6.25905 0.0138,0.0661 1.21405,6.22735 0.0138,0.0675 1.16444,6.19428 0.0124,0.0703 1.11345,6.16259 0.0124,0.0717 1.06247,6.13365 0.0124,0.073 1.01148,6.10471 0.0124,0.0744 0.95911,6.07715 0.011,0.0758 0.90675,6.05097 0.0124,0.0786 0.85438,6.02478 0.011,0.0799 0.80202,6.00135 0.01,0.0813 0.74965,5.97793 0.011,0.0827 0.6959,5.95726 0.01,0.0841 0.64354,5.93796 0.008,0.0854 0.5898,5.92005 0.008,0.0868 0.53606,5.90214 0.008,0.0882 0.48231,5.88698 0.007,0.0882 0.42995,5.8732 0.006,0.0896 0.37483,5.86217 0.006,0.09095 0.32108,5.849772 0.006,0.09095 0.26597,5.842882 0.004,0.09095 0.2136,5.834613 0.003,0.09233 0.15848,5.829102 0.001,0.09233 0.10473,5.824968 0.001,0.09233 0.0496,5.822211 0.001,0.09371 -0.004,5.820833 -0.001,0.09371 -0.0579,5.822211 -0.001,0.09371 -0.113,5.824967 -0.003,0.09233 -0.16675,5.829102 -0.003,0.09233 -0.22187,5.835992 -0.004,0.09233 -0.27561,5.842882 -0.004,0.09095 -0.32935,5.852528 -0.006,0.08957 -0.3831,5.863552 -0.007,0.08957 -0.43684,5.875954 -0.007,0.0882 -0.49196,5.889735 -0.007,0.086816 -0.5457,5.906272 -9.9577,-0.919151278 V 10.000631 H -193.31906 V 2.07722e-4 l -9.9577,0.919151278 -0.54433,-5.906272 -0.008,-0.086816 -0.49058,-5.889735 -0.007,-0.0882 -0.43821,-5.875954 -0.006,-0.08957 -0.38447,-5.863552 -0.004,-0.08957 -0.33073,-5.852528 -0.004,-0.09095 -0.2756,-5.842882 -0.004,-0.09233 -0.22048,-5.835992 -0.004,-0.09233 -0.16674,-5.829102 -0.003,-0.09233 -0.11162,-5.824967 -0.001,-0.09371 -0.0592,-5.822211 v -0.09371 l -0.004,-5.820833 v -0.09371 l 0.0496,-5.822211 0.001,-0.09233 0.10473,-5.824968 0.001,-0.09233 0.15985,-5.829102 0.003,-0.09233 0.21222,-5.834613 0.004,-0.09095 0.26734,-5.842882 0.004,-0.09095 0.32108,-5.849772 0.006,-0.09095 0.37483,-5.86217 0.007,-0.0896 0.42857,-5.8732 0.007,-0.0882 0.48231,-5.88698 0.008,-0.0882 0.53606,-5.90214 0.008,-0.0868 0.5898,-5.92005 0.01,-0.0854 0.64354,-5.93796 0.008,-0.0841 0.69729,-5.95726 0.01,-0.0827 0.74965,-5.97793 0.011,-0.0813 0.80202,-6.00135 0.011,-0.0799 0.85438,-6.02478 0.011,-0.0786 0.90675,-6.05097 0.0124,-0.0758 0.95912,-6.07715 0.0124,-0.0744 1.0101,-6.10471 0.0124,-0.073 1.06246,-6.13365 0.0124,-0.0717 1.11345,-6.16259 0.0138,-0.0703 1.16444,-6.19428 0.0124,-0.0675 1.21543,-6.22735 0.0124,-0.0661 1.26504,-6.25905 0.0138,-0.0648 1.31465,-6.2935 0.0138,-0.062 1.36425,-6.32795 0.0138,-0.0606 1.41387,-6.36378 0.0138,-0.0593 1.4621,-6.40098 0.0138,-0.0565 1.51033,-6.43682 0.0138,-0.0565 1.55856,-6.47402 0.0138,-0.0551 1.60542,-6.51261 0.0138,-0.0524 1.65364,-6.55119 0.0124,-0.051 1.70049,-6.59116 0.0124,-0.0496 1.74597,-6.63112 0.0124,-0.0469 1.79283,-6.67108 0.0124,-0.0469 1.83693,-6.71104 0.0124,-0.0455 1.88102,-6.75238 0.0124,-0.0427 1.92512,-6.79373 0.0124,-0.0413 1.96921,-6.83369 0.0124,-0.0414 2.01193,-6.87503 0.011,-0.0386 2.05603,-6.91775 0.011,-0.0372 2.096,-6.95909 0.011,-0.0372 2.13872,-7.00043 0.011,-0.0345 2.17868,-7.04177 0.011,-0.0331 2.21864,-7.08312 0.01,-0.0331 2.25861,-7.12446 0.011,-0.0317 2.29719,-7.16442 0.01,-0.0303 2.33577,-7.20714 0.01,-0.0289 2.37298,-7.24711 0.01,-0.0276 2.41019,-7.28707 0.01,-0.0262 2.44602,-7.32703 0.008,-0.0262 2.48322,-7.36699 0.008,-0.0248 2.51768,-7.40558 0.008,-0.0234 2.55074,-7.44554 0.008,-0.0221 2.5852,-7.48274 0.008,-0.022 2.61689,-7.51996 0.008,-0.022 2.64997,-7.55717 0.007,-0.0207 2.68166,-7.59299 0.007,-0.0207 2.71198,-7.62882 0.007,-0.0193 2.7423,-7.66465 0.007,-0.0179 2.76986,-7.6991 0.007,-0.0179 2.79879,-7.73355 0.007,-0.0165 2.82636,-7.76663 0.007,-0.0152 2.85254,-7.79832 0.007,-0.0152 2.87872,-7.83139 0.006,-0.0138 2.904906,-7.86171 0.0055,-0.0138 2.929709,-7.89065 0.0041,-0.0138 2.953136,-7.91958 0.0055,-0.0124 2.975185,-7.94852 0.0055,-0.011 2.997233,-7.97609 0.0041,-0.011 3.019282,-8.00227 0.0041,-0.011 3.038574,-8.02569 0.0041,-0.011 3.059245,-8.05188 0.0028,-0.01 3.077159,-8.07392 3.099208,-8.107 3.115745,-8.12767 3.130902,-8.14696 3.146062,-8.16488 3.159841,-8.18417 3.173622,-8.2007 3.186025,-8.21587 3.197048,-8.22964 3.208073,-8.24481 3.217719,-8.25582 3.225988,-8.26685 3.234255,-8.27788 3.241146,-8.28614 3.248036,-8.29304 9.311404,3.64491 v -9.99904 z m 0,0"
         transform="matrix(2.834646,0,0,2.834646,613.26056,1997.4603)"
         id="path11365" />
      <path
         style="fill:none;stroke:#ff0000;stroke-width:0.3;stroke-linecap:round;stroke-linejoin:round;stroke-miterlimit:10;stroke-opacity:1"
         d="m 193.3185,2.07722e-4 0.5457,-5.904893722 0.49058,-5.889735 0.43684,-5.875955 0.38447,-5.862175 0.32935,-5.852528 0.27561,-5.842882 0.22049,-5.835991 0.16812,-5.829102 0.11162,-5.824967 0.0592,-5.822212 0.004,-5.820833 -0.0496,-5.822212 -0.10473,-5.824967 -0.15848,-5.827723 -0.21359,-5.834614 -0.26597,-5.841504 -0.32108,-5.85115 -0.3762,-5.860794 -0.42857,-5.8732 -0.48231,-5.88698 -0.53744,-5.90352 -0.5898,-5.91867 -0.64354,-5.93797 -0.69591,-5.95726 -0.74966,-5.9793 -0.80201,-6.00136 -0.85439,-6.02478 -0.90675,-6.05097 -0.95911,-6.07715 -1.01148,-6.10471 -1.06247,-6.13364 -1.11345,-6.16259 -1.16445,-6.19428 -1.21543,-6.22736 -1.26503,-6.25905 -1.31465,-6.2935 -1.36564,-6.32795 -1.41387,-6.36378 -1.4621,-6.40099 -1.51033,-6.43681 -1.55993,-6.47541 -1.60542,-6.5126 -1.65365,-6.55257 -1.70049,-6.59116 -1.74598,-6.63112 -1.79283,-6.67108 -1.83692,-6.71243 -1.88102,-6.75238 -1.9265,-6.79235 -1.96922,-6.83508 -2.01193,-6.87641 -2.05466,-6.91775 -2.09737,-6.95909 -2.13872,-7.00043 -2.17868,-7.04178 -2.21864,-7.08312 -2.2586,-7.12445 -2.29857,-7.1658 -2.33577,-7.20576 -2.37299,-7.24711 -2.41019,-7.28706 -2.44739,-7.32703 -2.48185,-7.36699 -2.51767,-7.40558 -2.55213,-7.44416 -2.5852,-7.48137 -2.61689,-7.51996 -2.64997,-7.55854 -2.68166,-7.59299 -2.71198,-7.63019 -2.7423,-7.66465 -2.77123,-7.6991 -2.798799,-7.73355 -2.827735,-7.76525 -2.853917,-7.79969 -2.880099,-7.83002 -2.904905,-7.86033 -2.928331,-7.89064 -2.953136,-7.92097 -2.976563,-7.94714 -2.997233,-7.97609 -3.019281,-8.00089 -3.038574,-8.02707 -3.059245,-8.0505 -3.07716,-8.0753 -3.095073,-8.09736 -3.111611,-8.11802 -3.128146,-8.13869 -3.143305,-8.15937 -3.157086,-8.1759 -3.170866,-8.19381 -3.183268,-8.20898 -3.195671,-8.22551 -3.205316,-8.23791 -3.216342,-8.25169 -3.224609,-8.26272 -3.232878,-8.27374 -3.239767,-8.28201 -3.246658,-8.29166 h -39.269955 l -3.246658,8.29166 -3.239768,8.28201 -3.232877,8.27374 -3.22461,8.26272 -3.216341,8.25169 -3.205317,8.23791 -3.194292,8.22551 -3.184646,8.20898 -3.170866,8.19381 -3.157086,8.1759 -3.143305,8.15937 -3.126768,8.13869 -3.112989,8.11802 -3.095074,8.09736 -3.077159,8.0753 -3.057867,8.0505 -3.039952,8.02707 -3.017904,8.00089 -2.998611,7.97609 -2.975184,7.94714 -2.953136,7.92097 -2.929709,7.89064 -2.904905,7.86033 -2.880099,7.83002 -2.853918,7.79969 -2.826356,7.76525 -2.800174,7.73355 -2.76986,7.6991 -2.74229,7.66465 -2.71198,7.63019 -2.68166,7.59299 -2.64997,7.55854 -2.61827,7.51996 -2.5852,7.48137 -2.55213,7.44416 -2.5163,7.40558 -2.48322,7.36699 -2.44602,7.32703 -2.41157,7.28706 -2.37298,7.24711 -2.33577,7.20576 -2.29719,7.1658 -2.25861,7.12445 -2.22002,7.08312 -2.17868,7.04178 -2.13871,7.00043 -2.096,6.95909 -2.05465,6.91775 -2.01332,6.87641 -1.96921,6.83508 -1.92512,6.79235 -1.8824,6.75238 -1.83693,6.71243 -1.79145,6.67108 -1.74735,6.63112 -1.69912,6.59116 -1.65365,6.55257 -1.60679,6.5126 -1.55856,6.47541 -1.51171,6.43681 -1.4621,6.40099 -1.41386,6.36378 -1.36426,6.32795 -1.31603,6.2935 -1.26504,6.25905 -1.21543,6.22736 -1.16444,6.19428 -1.11345,6.16259 -1.06247,6.13364 -1.0101,6.10471 -0.95912,6.07715 -0.90675,6.05097 -0.85576,6.02478 -0.80202,6.00136 -0.74965,5.9793 -0.69591,5.95726 -0.64354,5.93797 -0.5898,5.91867 -0.53606,5.90352 -0.48369,5.88698 -0.42857,5.8732 -0.37483,5.860794 -0.32108,5.85115 -0.26734,5.841504 -0.21222,5.834614 -0.15985,5.827723 -0.10335,5.824967 -0.051,5.822212 0.004,5.820833 0.0593,5.822212 0.113,5.824967 0.16674,5.829102 0.22187,5.835991 0.2756,5.842882 0.32935,5.852528 0.3831,5.862175 0.43684,5.875955 0.49196,5.889735 0.54432,5.904893722 z m 0,0"
         transform="matrix(2.834646,0,0,2.834646,613.26056,1997.4603)"
         id="path11367" />
    </g>
    <clipPath
       id="clip1">
      <rect
         x="0"
         y="0"
         width="1227"
         height="2055"
         id="rect11370" />
    </clipPath>
    <g
       id="surface9"
       clip-path="url(#clip1)">
      <use
         xlink:href="#surface5"
         id="use11373"
         x="0"
         y="0"
         width="100%"
         height="100%" />
    </g>
    <clipPath
       id="clip1-3">
      <rect
         x="0"
         y="0"
         width="1227"
         height="2055"
         id="rect11828" />
    </clipPath>
    <clipPath
       id="clip2-5">
      <rect
         x="0"
         y="0"
         width="1227"
         height="2055"
         id="rect11820" />
    </clipPath>
    <clipPath
       id="clipPath11919">
      <rect
         x="0"
         y="0"
         width="1227"
         height="2055"
         id="rect11917" />
    </clipPath>
    <clipPath
       id="clipPath11923">
      <rect
         x="0"
         y="0"
         width="1227"
         height="2055"
         id="rect11921" />
    </clipPath>
    <clipPath
       id="clipPath11927">
      <rect
         x="0"
         y="0"
         width="1227"
         height="2055"
         id="rect11925" />
    </clipPath>
    <clipPath
       id="clip1-2">
      <rect
         x="0"
         y="0"
         width="1227"
         height="2055"
         id="rect11828-9" />
    </clipPath>
    <clipPath
       id="clip2-1">
      <rect
         x="0"
         y="0"
         width="1227"
         height="2055"
         id="rect11820-2" />
    </clipPath>
    <clipPath
       id="clipPath12278">
      <rect
         x="0"
         y="0"
         width="1227"
         height="2055"
         id="rect12276" />
    </clipPath>
    <clipPath
       id="clipPath12282">
      <rect
         x="0"
         y="0"
         width="1227"
         height="2055"
         id="rect12280" />
    </clipPath>
    <clipPath
       id="clipPath12286">
      <rect
         x="0"
         y="0"
         width="1227"
         height="2055"
         id="rect12284" />
    </clipPath>
    <clipPath
       id="clip1-0">
      <rect
         x="0"
         y="0"
         width="1227"
         height="2055"
         id="rect11828-93" />
    </clipPath>
    <clipPath
       id="clip2-6">
      <rect
         x="0"
         y="0"
         width="1227"
         height="2055"
         id="rect11820-0" />
    </clipPath>
    <clipPath
       id="clipPath12453">
      <rect
         x="0"
         y="0"
         width="1227"
         height="2055"
         id="rect12451" />
    </clipPath>
    <clipPath
       id="clipPath12457">
      <rect
         x="0"
         y="0"
         width="1227"
         height="2055"
         id="rect12455" />
    </clipPath>
    <clipPath
       id="clipPath12461">
      <rect
         x="0"
         y="0"
         width="1227"
         height="2055"
         id="rect12459" />
    </clipPath>
    <clipPath
       id="clip1-26">
      <rect
         x="0"
         y="0"
         width="1227"
         height="2055"
         id="rect11828-1" />
    </clipPath>
    <clipPath
       id="clip2-8">
      <rect
         x="0"
         y="0"
         width="1227"
         height="2055"
         id="rect11820-7" />
    </clipPath>
    <clipPath
       id="clipPath12628">
      <rect
         x="0"
         y="0"
         width="1227"
         height="2055"
         id="rect12626" />
    </clipPath>
    <clipPath
       id="clipPath12632">
      <rect
         x="0"
         y="0"
         width="1227"
         height="2055"
         id="rect12630" />
    </clipPath>
    <clipPath
       id="clipPath12636">
      <rect
         x="0"
         y="0"
         width="1227"
         height="2055"
         id="rect12634" />
    </clipPath>
    <clipPath
       id="clip2-3">
      <rect
         x="0"
         y="0"
         width="1227"
         height="2055"
         id="rect1030" />
    </clipPath>
    <g
       id="surface5-6"
       clip-path="url(#clip2-3)">
      <path
         style="fill:none;stroke-width:0.3;stroke-linecap:round;stroke-linejoin:round;stroke:rgb(0%,0%,0%);stroke-opacity:1;stroke-miterlimit:10;"
         d="M 202.438318 10.000631 L -202.438949 10.000631 L -203.825256 -5.029632 L -204.324106 -11.007561 L -204.767834 -16.973089 L -205.157819 -22.924836 L -205.491304 -28.868314 L -205.772424 -34.803525 L -205.997044 -40.730467 L -206.166543 -46.651897 L -206.28092 -52.570571 L -206.340175 -58.486489 L -206.34431 -64.401029 L -206.293322 -70.315569 L -206.187213 -76.234243 L -206.025983 -82.154295 L -205.811009 -88.081238 L -205.539535 -94.01507 L -205.21294 -99.955793 L -204.832602 -105.90754 L -204.397142 -111.870311 L -203.90656 -117.845485 L -203.362235 -123.835817 L -202.764166 -129.841307 L -202.110976 -135.863334 L -201.405421 -141.904653 L -200.644744 -147.965265 L -199.831701 -154.046548 L -198.966293 -160.151257 L -198.047142 -166.278015 L -197.077003 -172.430955 L -196.05312 -178.610079 L -194.978251 -184.815385 L -193.852393 -191.04963 L -192.675549 -197.312813 L -191.447717 -203.606314 L -190.168897 -209.930131 L -188.840468 -216.287021 L -187.46243 -222.676984 L -186.034783 -229.101398 L -184.558904 -235.558885 L -183.034794 -242.053579 L -181.462452 -248.582724 L -179.843257 -255.149076 L -178.177209 -261.752635 L -176.464307 -268.393401 L -174.704553 -275.072752 L -172.900701 -281.790689 L -171.051373 -288.54721 L -169.156571 -295.343694 L -167.219049 -302.180142 L -165.238808 -309.055174 L -163.21447 -315.97017 L -161.147413 -322.926507 L -159.040392 -329.921429 L -156.890653 -336.957692 L -154.70095 -344.033918 L -152.471284 -351.150107 L -150.203034 -358.306259 L -147.896198 -365.502375 L -145.550777 -372.738453 L -143.166771 -380.014495 L -140.748313 -387.329122 L -138.292649 -394.682334 L -135.801156 -402.07413 L -133.275212 -409.504512 L -130.716195 -416.972101 L -128.122728 -424.476897 L -125.497565 -432.0189 L -122.839329 -439.596732 L -120.150777 -447.210393 L -117.431907 -454.859883 L -114.684099 -462.543824 L -111.905974 -470.260838 L -109.100288 -478.010925 L -106.26842 -485.792707 L -103.407613 -493.607561 L -100.523379 -501.452733 L -97.612962 -509.328221 L -94.677741 -517.232648 L -91.720471 -525.164636 L -88.739774 -533.125563 L -85.737029 -541.112672 L -82.714991 -549.125964 L -79.670905 -557.162683 L -76.608904 -565.224206 L -73.526232 -573.313291 L -70.428402 -581.418911 L -67.312658 -589.54658 L -64.181755 -597.692164 L -61.035694 -605.858419 L -57.875853 -614.041209 L -54.702231 -622.240537 L -51.517584 -630.4564 L -48.320536 -638.686044 L -45.112463 -646.929469 L -41.894744 -655.185296 L -38.668756 -663.452147 L -35.434501 -671.728644 L -32.193355 -680.014788 L -26.45796 -694.6592 L 26.458707 -694.6592 L 32.194102 -680.012032 L 35.435248 -671.725888 L 38.669503 -663.448013 L 41.896869 -655.181162 L 45.114588 -646.925335 L 48.322661 -638.680532 L 51.51971 -630.450888 L 54.705734 -622.235024 L 57.877978 -614.034319 L 61.039197 -605.85015 L 64.185259 -597.685274 L 67.316161 -589.538312 L 70.430528 -581.410643 L 73.529736 -573.303644 L 76.608273 -565.224206 L 79.671652 -557.162683 L 82.71436 -549.125964 L 85.737776 -541.112672 L 88.740521 -533.125563 L 91.71984 -525.164636 L 94.678488 -517.232648 L 97.612331 -509.328221 L 100.522748 -501.452733 L 103.40836 -493.607561 L 106.267789 -485.792707 L 109.101035 -478.010925 L 111.906721 -470.260838 L 114.683468 -462.543824 L 117.432654 -454.859883 L 120.151524 -447.210393 L 122.840076 -439.596732 L 125.496934 -432.0189 L 128.123475 -424.476897 L 130.715565 -416.972101 L 133.27596 -409.504512 L 135.800525 -402.07413 L 138.292019 -394.682334 L 140.747683 -387.329122 L 143.167518 -380.014495 L 145.550146 -372.738453 L 147.895567 -365.502375 L 150.202403 -358.306259 L 152.472032 -351.150107 L 154.701697 -344.033918 L 156.8914 -336.957692 L 159.039762 -329.921429 L 161.14816 -322.926507 L 163.213839 -315.97017 L 165.238177 -309.055174 L 167.219796 -302.180142 L 169.157318 -295.343694 L 171.050742 -288.54721 L 172.90007 -281.790689 L 174.7053 -275.072752 L 176.463677 -268.393401 L 178.176578 -261.752635 L 179.842626 -255.149076 L 181.463199 -248.582724 L 183.035541 -242.053579 L 184.559651 -235.558885 L 186.03553 -229.101398 L 187.461799 -222.676984 L 188.839838 -216.287021 L 190.168266 -209.930131 L 191.447086 -203.606314 L 192.674918 -197.312813 L 193.853141 -191.04963 L 194.978998 -184.815385 L 196.053867 -178.610079 L 197.076372 -172.430955 L 198.047889 -166.278015 L 198.96704 -160.151257 L 199.832448 -154.046548 L 200.645491 -147.965265 L 201.40479 -141.904653 L 202.111723 -135.863334 L 202.763535 -129.841307 L 203.361604 -123.835817 L 203.905929 -117.845485 L 204.396511 -111.870311 L 204.831971 -105.90754 L 205.213687 -99.955793 L 205.538904 -94.01507 L 205.810378 -88.081238 L 206.02673 -82.154295 L 206.18796 -76.234243 L 206.294069 -70.315569 L 206.345057 -64.401029 L 206.340923 -58.486489 L 206.280289 -52.570571 L 206.165912 -46.651897 L 205.996413 -40.730467 L 205.771793 -34.803525 L 205.492051 -28.868314 L 205.157188 -22.924836 L 204.767203 -16.973089 L 204.323475 -11.007561 L 203.824625 -5.029632 Z M 202.438318 10.000631 "
         transform="matrix(2.834646,0,0,2.834646,613.26066,1997.460349)"
         id="path1033" />
      <path
         style="fill:none;stroke-width:0.3;stroke-linecap:round;stroke-linejoin:round;stroke:rgb(100%,0%,0%);stroke-opacity:1;stroke-miterlimit:10;"
         d="M 193.318462 0.000207722 L 193.864165 -5.904686 L 194.354746 -11.794421 L 194.791585 -17.670376 L 195.176057 -23.532551 L 195.505408 -29.385079 L 195.781016 -35.227961 L 196.001502 -41.063952 L 196.169623 -46.893054 L 196.281244 -52.718021 L 196.340499 -58.540233 L 196.344634 -64.361066 L 196.295024 -70.183278 L 196.190293 -76.008245 L 196.031819 -81.835968 L 195.818223 -87.670582 L 195.552262 -93.512086 L 195.231179 -99.363236 L 194.854974 -105.224033 L 194.426404 -111.097232 L 193.944091 -116.984211 L 193.406656 -122.887726 L 192.816856 -128.8064 L 192.173312 -134.744367 L 191.477403 -140.701626 L 190.72775 -146.680934 L 189.925732 -152.68229 L 189.071348 -158.707073 L 188.164599 -164.758039 L 187.205484 -170.835187 L 186.194004 -176.939896 L 185.131537 -183.073544 L 184.018082 -189.236131 L 182.85364 -195.430413 L 181.63821 -201.657768 L 180.373171 -207.916817 L 179.058522 -214.210317 L 177.692887 -220.538269 L 176.279019 -226.902049 L 174.816921 -233.303037 L 173.306591 -239.739853 L 171.746652 -246.215255 L 170.141237 -252.727863 L 168.487591 -259.280435 L 166.787092 -265.871591 L 165.041118 -272.502711 L 163.24829 -279.173794 L 161.411365 -285.886218 L 159.530343 -292.638605 L 157.603846 -299.430955 L 155.634629 -306.266025 L 153.622693 -313.142436 L 151.568039 -320.060187 L 149.470664 -327.01928 L 147.331949 -334.019714 L 145.153271 -341.061489 L 142.934629 -348.144606 L 140.676025 -355.269063 L 138.377457 -362.434862 L 136.041682 -369.640623 L 133.6687 -376.887726 L 131.258512 -384.174792 L 128.811116 -391.501821 L 126.329269 -398.868814 L 123.811593 -406.274391 L 121.259466 -413.718553 L 118.674267 -421.199922 L 116.057372 -428.719877 L 113.407405 -436.278416 L 110.725742 -443.871407 L 108.013763 -451.501604 L 105.271467 -459.166253 L 102.500233 -466.865352 L 99.701437 -474.598903 L 96.873703 -482.364148 L 94.019785 -490.163844 L 91.139686 -497.993857 L 88.234781 -505.854187 L 85.30645 -513.744834 L 82.353314 -521.665797 L 79.376752 -529.612943 L 76.379519 -537.589028 L 73.360237 -545.589918 L 70.321663 -553.616991 L 67.262418 -561.66749 L 64.185259 -569.742794 L 61.090185 -577.840146 L 57.978575 -585.958169 L 54.850428 -594.096863 L 51.707123 -602.256227 L 48.550037 -610.432127 L 45.379171 -618.625942 L 42.195903 -626.834916 L 39.000233 -635.060426 L 35.794916 -643.298338 L 32.578575 -651.550031 L 29.353965 -659.812748 L 26.121088 -668.086489 L 22.88132 -676.368499 L 19.634662 -684.660155 L -19.635293 -684.660155 L -22.881951 -676.368499 L -26.121718 -668.086489 L -29.354596 -659.812748 L -32.579205 -651.550031 L -35.795547 -643.298338 L -39.000863 -635.060426 L -42.195156 -626.834916 L -45.379802 -618.625942 L -48.550668 -610.432127 L -51.707754 -602.256227 L -54.851059 -594.096863 L -57.977827 -585.958169 L -61.090816 -577.840146 L -64.185889 -569.742794 L -67.263049 -561.66749 L -70.320915 -553.616991 L -73.360868 -545.589918 L -76.378771 -537.589028 L -79.377383 -529.612943 L -82.352567 -521.665797 L -85.305703 -513.744834 L -88.235412 -505.854187 L -91.140317 -497.993857 L -94.020416 -490.163844 L -96.874333 -482.364148 L -99.70069 -474.598903 L -102.500863 -466.865352 L -105.27072 -459.166253 L -108.013016 -451.501604 L -110.724995 -443.871407 L -113.406658 -436.278416 L -116.056625 -428.719877 L -118.674898 -421.199922 L -121.260097 -413.718553 L -123.812224 -406.274391 L -126.328522 -398.868814 L -128.811747 -391.501821 L -131.257764 -384.174792 L -133.669331 -376.887726 L -136.042313 -369.640623 L -138.378088 -362.434862 L -140.675277 -355.269063 L -142.933882 -348.144606 L -145.153902 -341.061489 L -147.33258 -334.019714 L -149.471295 -327.01928 L -151.567291 -320.060187 L -153.621946 -313.142436 L -155.63526 -306.266025 L -157.604477 -299.430955 L -159.529596 -292.638605 L -161.411996 -285.886218 L -163.248921 -279.173794 L -165.040371 -272.502711 L -166.787723 -265.871591 L -168.486844 -259.280435 L -170.14049 -252.727863 L -171.747283 -246.215255 L -173.305844 -239.739853 L -174.817552 -233.303037 L -176.27965 -226.902049 L -177.693517 -220.538269 L -179.057775 -214.210317 L -180.373802 -207.916817 L -181.638841 -201.657768 L -182.854271 -195.430413 L -184.018713 -189.236131 L -185.132168 -183.073544 L -186.194635 -176.939896 L -187.204737 -170.835187 L -188.163852 -164.758039 L -189.070601 -158.707073 L -189.926363 -152.68229 L -190.728381 -146.680934 L -191.478034 -140.701626 L -192.173943 -134.744367 L -192.817487 -128.8064 L -193.407287 -122.887726 L -193.943344 -116.984211 L -194.427035 -111.097232 L -194.855605 -105.224033 L -195.230432 -99.363236 L -195.551514 -93.512086 L -195.818854 -87.670582 L -196.031072 -81.835968 L -196.190924 -76.008245 L -196.294277 -70.183278 L -196.345264 -64.361066 L -196.34113 -58.540233 L -196.281875 -52.718021 L -196.168876 -46.893054 L -196.002133 -41.063952 L -195.780269 -35.227961 L -195.504661 -29.385079 L -195.17531 -23.532551 L -194.792215 -17.670376 L -194.355377 -11.794421 L -193.863418 -5.904686 L -193.319093 0.000207722 Z M 193.318462 0.000207722 "
         transform="matrix(2.834646,0,0,2.834646,613.26066,1997.460349)"
         id="path1035" />
    </g>
    <clipPath
       id="clip1-7">
      <rect
         x="0"
         y="0"
         width="1227"
         height="2055"
         id="rect1038" />
    </clipPath>
    <g
       id="surface9-5"
       clip-path="url(#clip1-7)">
      <use
         xlink:href="#surface5-6"
         id="use1041" />
    </g>
    <clipPath
       id="clip2-56">
      <rect
         x="0"
         y="0"
         width="1227"
         height="2055"
         id="rect1563" />
    </clipPath>
    <g
       id="surface5-2"
       clip-path="url(#clip2-56)">
      <path
         style="fill:none;stroke-width:0.3;stroke-linecap:round;stroke-linejoin:round;stroke:rgb(0%,0%,0%);stroke-opacity:1;stroke-miterlimit:10;"
         d="M 193.318496 10.000631 L -193.319059 10.000631 L -203.276763 0.919359 L -203.821088 -4.986913 L -203.829356 -5.073729 L -204.319938 -10.963464 L -204.326828 -11.051659 L -204.765044 -16.927613 L -204.770556 -17.017186 L -205.155029 -22.880738 L -205.159163 -22.970311 L -205.489892 -28.822839 L -205.494026 -28.91379 L -205.769634 -34.756672 L -205.773768 -34.849 L -205.994254 -40.684992 L -205.998388 -40.77732 L -206.165131 -46.606422 L -206.167887 -46.698751 L -206.279508 -52.523718 L -206.280886 -52.617425 L -206.340142 -58.439636 L -206.340142 -58.533343 L -206.344276 -64.354176 L -206.344276 -64.447883 L -206.294666 -70.270094 L -206.293288 -70.362422 L -206.188557 -76.18739 L -206.187179 -76.279718 L -206.027327 -82.10882 L -206.024571 -82.201149 L -205.812353 -88.035762 L -205.808219 -88.126713 L -205.540879 -93.969595 L -205.536745 -94.060545 L -205.215662 -99.910317 L -205.21015 -100.001268 L -204.835324 -105.863442 L -204.828434 -105.953015 L -204.399864 -111.826214 L -204.392974 -111.914408 L -203.91066 -117.801387 L -203.902392 -117.889582 L -203.366335 -123.791719 L -203.358067 -123.878536 L -202.768267 -129.798588 L -202.75862 -129.884026 L -202.115076 -135.821993 L -202.106808 -135.906053 L -201.409521 -141.863312 L -201.399875 -141.945995 L -200.650222 -147.923924 L -200.639198 -148.005228 L -199.837179 -154.006585 L -199.826155 -154.086511 L -198.971771 -160.111294 L -198.960747 -160.189842 L -198.053998 -166.240808 L -198.041596 -166.3166 L -197.082481 -172.393748 L -197.070079 -172.468163 L -196.059977 -178.572872 L -196.047574 -178.645908 L -194.985107 -184.779556 L -194.972705 -184.851214 L -193.85925 -191.013801 L -193.845469 -191.08408 L -192.681027 -197.278362 L -192.668625 -197.345886 L -191.453195 -203.573241 L -191.440793 -203.639386 L -190.175754 -209.898436 L -190.161973 -209.963204 L -188.847325 -216.256704 L -188.833544 -216.318716 L -187.469287 -222.646667 L -187.455506 -222.707301 L -186.041639 -229.071081 L -186.027859 -229.130337 L -184.56576 -235.531324 L -184.55198 -235.587824 L -183.04165 -242.02464 L -183.027869 -242.08114 L -181.469308 -248.555163 L -181.455528 -248.610285 L -179.850113 -255.122893 L -179.836333 -255.175259 L -178.182687 -261.726452 L -178.170285 -261.77744 L -176.469786 -268.368597 L -176.457383 -268.418206 L -174.711409 -275.049326 L -174.699007 -275.096179 L -172.906179 -281.767262 L -172.893777 -281.814115 L -171.056852 -288.525161 L -171.044449 -288.570636 L -169.163427 -295.323024 L -169.151025 -295.365743 L -167.225905 -302.159471 L -167.213503 -302.200812 L -165.244287 -309.034504 L -165.231884 -309.075845 L -163.219948 -315.950877 L -163.208924 -315.989462 L -161.152891 -322.907214 L -161.141867 -322.944421 L -159.045871 -329.903514 L -159.034846 -329.940721 L -156.896131 -336.941155 L -156.885107 -336.975606 L -154.706428 -344.017381 L -154.695404 -344.050454 L -152.476763 -351.13357 L -152.467116 -351.166643 L -150.208512 -358.291101 L -150.197488 -358.322796 L -147.900298 -365.487216 L -147.890652 -365.517533 L -145.554877 -372.724673 L -145.545231 -372.753612 L -143.172249 -380.000715 L -143.162603 -380.028275 L -140.752414 -387.315341 L -140.742767 -387.341524 L -138.29675 -394.668553 L -138.288481 -394.694736 L -135.805257 -402.061728 L -135.796988 -402.086533 L -133.279313 -409.49211 L -133.271044 -409.515537 L -130.720296 -416.961077 L -130.712027 -416.983126 L -128.126828 -424.465873 L -128.11856 -424.487922 L -125.501665 -432.007876 L -125.493397 -432.029925 L -122.843429 -439.587086 L -122.836539 -439.607757 L -120.154877 -447.200747 L -120.147987 -447.221418 L -117.436007 -454.850237 L -117.429117 -454.86953 L -114.686821 -462.534178 L -114.679931 -462.552093 L -111.910074 -470.251192 L -111.903184 -470.269107 L -109.104389 -478.002657 L -109.097498 -478.019193 L -106.271142 -485.785817 L -106.264252 -485.800975 L -103.411713 -493.599293 L -103.404823 -493.614452 L -100.526101 -501.445843 L -100.520589 -501.459623 L -97.615684 -509.321331 L -97.610172 -509.335111 L -94.680463 -517.225758 L -94.676329 -517.239538 L -91.723193 -525.159124 L -91.717681 -525.171526 L -88.742496 -533.120051 L -88.736984 -533.131075 L -85.739751 -541.10716 L -85.735617 -541.118184 L -82.716335 -549.120452 L -82.712201 -549.131476 L -79.673627 -557.157171 L -79.669493 -557.168195 L -76.610248 -565.220072 L -76.607492 -565.229718 L -73.526198 -573.313291 L -70.428369 -581.418911 L -67.312624 -589.54658 L -64.181721 -597.692164 L -61.03566 -605.858419 L -57.875819 -614.041209 L -54.702197 -622.240537 L -51.51755 -630.4564 L -48.320502 -638.686044 L -45.112429 -646.929469 L -41.89471 -655.185296 L -38.668722 -663.452147 L -35.434467 -671.728644 L -32.193321 -680.014788 L -28.946663 -688.305066 L -19.635259 -694.6592 L 19.634696 -694.6592 L 28.9461 -688.305066 L 32.194136 -680.012032 L 35.435282 -671.725888 L 38.669537 -663.448013 L 41.896903 -655.181162 L 45.114622 -646.925335 L 48.322695 -638.680532 L 51.519743 -630.450888 L 54.705768 -622.235024 L 57.878012 -614.034319 L 61.039231 -605.85015 L 64.185292 -597.685274 L 67.316195 -589.538312 L 70.430562 -581.410643 L 73.529769 -573.303644 L 76.606929 -565.229718 L 76.611063 -565.220072 L 79.66893 -557.168195 L 79.673064 -557.157171 L 82.713016 -549.131476 L 82.71715 -549.120452 L 85.735054 -541.118184 L 85.739188 -541.10716 L 88.737799 -533.131075 L 88.741933 -533.120051 L 91.718496 -525.171526 L 91.72263 -525.159124 L 94.675766 -517.239538 L 94.681278 -517.225758 L 97.609609 -509.335111 L 97.615121 -509.321331 L 100.520026 -501.459623 L 100.525538 -501.445843 L 103.405637 -493.614452 L 103.41115 -493.599293 L 106.265067 -485.800975 L 106.270579 -485.785817 L 109.098313 -478.019193 L 109.103825 -478.002657 L 111.902621 -470.269107 L 111.909511 -470.251192 L 114.680746 -462.552093 L 114.687636 -462.534178 L 117.428554 -454.86953 L 117.435444 -454.850237 L 120.147424 -447.221418 L 120.154314 -447.200747 L 122.835976 -439.607757 L 122.842866 -439.587086 L 125.494212 -432.029925 L 125.501102 -432.007876 L 128.119374 -424.487922 L 128.126265 -424.465873 L 130.711464 -416.983126 L 130.719733 -416.961077 L 133.271859 -409.515537 L 133.280128 -409.49211 L 135.796425 -402.086533 L 135.806072 -402.061728 L 138.287918 -394.694736 L 138.296187 -394.668553 L 140.743582 -387.341524 L 140.751851 -387.315341 L 143.162039 -380.028275 L 143.171686 -380.000715 L 145.546045 -372.753612 L 145.554314 -372.724673 L 147.890088 -365.517533 L 147.901113 -365.487216 L 150.198302 -358.322796 L 150.207949 -358.291101 L 152.466553 -351.166643 L 152.477578 -351.13357 L 154.696219 -344.050454 L 154.705865 -344.017381 L 156.885922 -336.975606 L 156.895568 -336.941155 L 159.034283 -329.940721 L 159.045308 -329.903514 L 161.142682 -322.944421 L 161.153706 -322.907214 L 163.208361 -315.989462 L 163.219385 -315.950877 L 165.232699 -309.075845 L 165.243723 -309.034504 L 167.21294 -302.200812 L 167.225342 -302.159471 L 169.150462 -295.365743 L 169.162864 -295.323024 L 171.045264 -288.570636 L 171.057667 -288.525161 L 172.894591 -281.814115 L 172.906994 -281.767262 L 174.698443 -275.096179 L 174.710846 -275.049326 L 176.45682 -268.418206 L 176.470601 -268.368597 L 178.169722 -261.77744 L 178.183502 -261.726452 L 179.837148 -255.175259 L 179.84955 -255.122893 L 181.456343 -248.610285 L 181.468745 -248.555163 L 183.028684 -242.08114 L 183.041087 -242.02464 L 184.552795 -235.587824 L 184.565197 -235.531324 L 186.028674 -229.130337 L 186.041076 -229.071081 L 187.454943 -222.707301 L 187.468723 -222.646667 L 188.832981 -216.318716 L 188.846762 -216.256704 L 190.16141 -209.963204 L 190.17519 -209.898436 L 191.44023 -203.639386 L 191.45401 -203.573241 L 192.668062 -197.345886 L 192.681842 -197.278362 L 193.846284 -191.08408 L 193.858687 -191.013801 L 194.972141 -184.851214 L 194.984544 -184.779556 L 196.047011 -178.645908 L 196.059414 -178.572872 L 197.070894 -172.468163 L 197.083296 -172.393748 L 198.04241 -166.3166 L 198.053435 -166.240808 L 198.960184 -160.189842 L 198.972586 -160.111294 L 199.82697 -154.086511 L 199.837994 -154.006585 L 200.640012 -148.005228 L 200.649659 -147.923924 L 201.399312 -141.945995 L 201.410336 -141.863312 L 202.106245 -135.906053 L 202.115891 -135.821993 L 202.759435 -129.884026 L 202.767703 -129.798588 L 203.357504 -123.878536 L 203.365772 -123.791719 L 203.901829 -117.889582 L 203.910097 -117.801387 L 204.39241 -111.914408 L 204.399301 -111.826214 L 204.829249 -105.953015 L 204.834761 -105.863442 L 205.209587 -100.001268 L 205.215099 -99.910317 L 205.536182 -94.060545 L 205.541694 -93.969595 L 205.807656 -88.126713 L 205.81179 -88.035762 L 206.025386 -82.201149 L 206.028142 -82.10882 L 206.186616 -76.279718 L 206.187994 -76.18739 L 206.292725 -70.362422 L 206.294103 -70.270094 L 206.343713 -64.447883 L 206.345091 -64.354176 L 206.340957 -58.533343 L 206.339578 -58.439636 L 206.281701 -52.617425 L 206.280323 -52.523718 L 206.167324 -46.698751 L 206.164568 -46.606422 L 205.997825 -40.77732 L 205.995069 -40.684992 L 205.773205 -34.849 L 205.769071 -34.756672 L 205.493463 -28.91379 L 205.489329 -28.822839 L 205.159978 -22.970311 L 205.154466 -22.880738 L 204.771371 -17.017186 L 204.764481 -16.927613 L 204.327643 -11.051659 L 204.320753 -10.963464 L 203.828793 -5.073729 L 203.821903 -4.986913 L 203.2762 0.919359 Z M 193.318496 10.000631 "
         transform="matrix(2.834646,0,0,2.834646,613.260564,1997.460349)"
         id="path1566" />
      <path
         style="fill:none;stroke-width:0.3;stroke-linecap:round;stroke-linejoin:round;stroke:rgb(100%,0%,0%);stroke-opacity:1;stroke-miterlimit:10;"
         d="M 193.318496 0.000207722 L 193.864199 -5.904686 L 194.35478 -11.794421 L 194.791618 -17.670376 L 195.176091 -23.532551 L 195.505442 -29.385079 L 195.78105 -35.227961 L 196.001536 -41.063952 L 196.169657 -46.893054 L 196.281278 -52.718021 L 196.340533 -58.540233 L 196.344667 -64.361066 L 196.295058 -70.183278 L 196.190327 -76.008245 L 196.031853 -81.835968 L 195.818257 -87.670582 L 195.552295 -93.512086 L 195.231213 -99.363236 L 194.855008 -105.224033 L 194.426438 -111.097232 L 193.944125 -116.984211 L 193.40669 -122.887726 L 192.81689 -128.8064 L 192.173346 -134.744367 L 191.477437 -140.701626 L 190.727784 -146.680934 L 189.925766 -152.68229 L 189.071382 -158.707073 L 188.164633 -164.758039 L 187.205518 -170.835187 L 186.194038 -176.939896 L 185.131571 -183.073544 L 184.018116 -189.236131 L 182.853674 -195.430413 L 181.638244 -201.657768 L 180.373205 -207.916817 L 179.058556 -214.210317 L 177.69292 -220.538269 L 176.279053 -226.902049 L 174.816955 -233.303037 L 173.306625 -239.739853 L 171.746686 -246.215255 L 170.141271 -252.727863 L 168.487625 -259.280435 L 166.787126 -265.871591 L 165.041152 -272.502711 L 163.248324 -279.173794 L 161.411399 -285.886218 L 159.530377 -292.638605 L 157.60388 -299.430955 L 155.634663 -306.266025 L 153.622727 -313.142436 L 151.568072 -320.060187 L 149.470698 -327.01928 L 147.331983 -334.019714 L 145.153305 -341.061489 L 142.934663 -348.144606 L 140.676058 -355.269063 L 138.377491 -362.434862 L 136.041716 -369.640623 L 133.668734 -376.887726 L 131.258545 -384.174792 L 128.81115 -391.501821 L 126.329303 -398.868814 L 123.811627 -406.274391 L 121.2595 -413.718553 L 118.674301 -421.199922 L 116.057406 -428.719877 L 113.407439 -436.278416 L 110.725776 -443.871407 L 108.013797 -451.501604 L 105.271501 -459.166253 L 102.500266 -466.865352 L 99.701471 -474.598903 L 96.873736 -482.364148 L 94.019819 -490.163844 L 91.13972 -497.993857 L 88.234815 -505.854187 L 85.306484 -513.744834 L 82.353348 -521.665797 L 79.376785 -529.612943 L 76.379552 -537.589028 L 73.360271 -545.589918 L 70.321697 -553.616991 L 67.262452 -561.66749 L 64.185292 -569.742794 L 61.090219 -577.840146 L 57.978608 -585.958169 L 54.850462 -594.096863 L 51.707157 -602.256227 L 48.550071 -610.432127 L 45.379205 -618.625942 L 42.195937 -626.834916 L 39.000266 -635.060426 L 35.79495 -643.298338 L 32.578608 -651.550031 L 29.353999 -659.812748 L 26.121121 -668.086489 L 22.881354 -676.368499 L 19.634696 -684.660155 L -19.635259 -684.660155 L -22.881917 -676.368499 L -26.121685 -668.086489 L -29.354562 -659.812748 L -32.579172 -651.550031 L -35.795513 -643.298338 L -39.00083 -635.060426 L -42.195122 -626.834916 L -45.379768 -618.625942 L -48.550634 -610.432127 L -51.70772 -602.256227 L -54.851025 -594.096863 L -57.977793 -585.958169 L -61.090782 -577.840146 L -64.185856 -569.742794 L -67.263015 -561.66749 L -70.320882 -553.616991 L -73.360834 -545.589918 L -76.378738 -537.589028 L -79.377349 -529.612943 L -82.352533 -521.665797 L -85.305669 -513.744834 L -88.235378 -505.854187 L -91.140283 -497.993857 L -94.020382 -490.163844 L -96.8743 -482.364148 L -99.700656 -474.598903 L -102.50083 -466.865352 L -105.270686 -459.166253 L -108.012982 -451.501604 L -110.724961 -443.871407 L -113.406624 -436.278416 L -116.056591 -428.719877 L -118.674864 -421.199922 L -121.260063 -413.718553 L -123.81219 -406.274391 L -126.328488 -398.868814 L -128.811713 -391.501821 L -131.257731 -384.174792 L -133.669297 -376.887726 L -136.042279 -369.640623 L -138.378054 -362.434862 L -140.675244 -355.269063 L -142.933848 -348.144606 L -145.153868 -341.061489 L -147.332546 -334.019714 L -149.471261 -327.01928 L -151.567257 -320.060187 L -153.621912 -313.142436 L -155.635226 -306.266025 L -157.604443 -299.430955 L -159.529562 -292.638605 L -161.411962 -285.886218 L -163.248887 -279.173794 L -165.040337 -272.502711 L -166.787689 -265.871591 L -168.48681 -259.280435 L -170.140456 -252.727863 L -171.747249 -246.215255 L -173.30581 -239.739853 L -174.817518 -233.303037 L -176.279616 -226.902049 L -177.693484 -220.538269 L -179.057741 -214.210317 L -180.373768 -207.916817 L -181.638807 -201.657768 L -182.854237 -195.430413 L -184.018679 -189.236131 L -185.132134 -183.073544 L -186.194601 -176.939896 L -187.204703 -170.835187 L -188.163818 -164.758039 L -189.070567 -158.707073 L -189.926329 -152.68229 L -190.728347 -146.680934 L -191.478 -140.701626 L -192.173909 -134.744367 L -192.817453 -128.8064 L -193.407253 -122.887726 L -193.94331 -116.984211 L -194.427001 -111.097232 L -194.855571 -105.224033 L -195.230398 -99.363236 L -195.551481 -93.512086 L -195.81882 -87.670582 L -196.031038 -81.835968 L -196.19089 -76.008245 L -196.294243 -70.183278 L -196.345231 -64.361066 L -196.341096 -58.540233 L -196.281841 -52.718021 L -196.168842 -46.893054 L -196.002099 -41.063952 L -195.780235 -35.227961 L -195.504627 -29.385079 L -195.175276 -23.532551 L -194.792182 -17.670376 L -194.355343 -11.794421 L -193.863384 -5.904686 L -193.319059 0.000207722 Z M 193.318496 0.000207722 "
         transform="matrix(2.834646,0,0,2.834646,613.260564,1997.460349)"
         id="path1568" />
    </g>
    <clipPath
       id="clip1-9">
      <rect
         x="0"
         y="0"
         width="1227"
         height="2055"
         id="rect1571" />
    </clipPath>
    <g
       id="surface9-1"
       clip-path="url(#clip1-9)">
      <use
         xlink:href="#surface5-2"
         id="use1574" />
    </g>
    <clipPath
       clipPathUnits="userSpaceOnUse"
       id="clipPath1677">
      <rect
         style="fill:none;stroke:#ff0000;stroke-width:0.826665;stroke-miterlimit:4;stroke-dasharray:none"
         id="rect1679"
         width="87.874016"
         height="87.874016"
         x="629.28607"
         y="6.7879562" />
    </clipPath>
  </defs>
  <use
     xlink:href="#surface9-1"
     id="use1579"
     x="0"
     y="0"
     width="100%"
     height="100%"
     transform="translate(-629.28606,-6.7879564)"
     clip-path="url(#clipPath1677)" />
</svg>
