<?xml version="1.0" encoding="UTF-8" standalone="no"?>
<svg
   width="87.874016pt"
   height="87.874016pt"
   viewBox="0 0 87.874017 87.874013"
   version="1.1"
   id="svg11381"
   sodipodi:docname="none_small.svg"
   inkscape:version="1.1 (c4e8f9ed74, 2021-05-24)"
   xmlns:inkscape="http://www.inkscape.org/namespaces/inkscape"
   xmlns:sodipodi="http://sodipodi.sourceforge.net/DTD/sodipodi-0.dtd"
   xmlns:xlink="http://www.w3.org/1999/xlink"
   xmlns="http://www.w3.org/2000/svg"
   xmlns:svg="http://www.w3.org/2000/svg">
  <sodipodi:namedview
     id="namedview11383"
     pagecolor="#ffffff"
     bordercolor="#666666"
     borderopacity="1.0"
     inkscape:pageshadow="2"
     inkscape:pageopacity="0.0"
     inkscape:pagecheckerboard="0"
     inkscape:document-units="pt"
     showgrid="false"
     fit-margin-top="0"
     fit-margin-left="0"
     fit-margin-right="0"
     fit-margin-bottom="0"
     inkscape:zoom="4.4052524"
     inkscape:cx="111.91186"
     inkscape:cy="49.940384"
     inkscape:window-width="1920"
     inkscape:window-height="1011"
     inkscape:window-x="0"
     inkscape:window-y="0"
     inkscape:window-maximized="1"
     inkscape:current-layer="svg11381"
     inkscape:snap-bbox="true"
     inkscape:snap-object-midpoints="true"
     inkscape:snap-center="true"
     inkscape:bbox-nodes="true"
     inkscape:bbox-paths="true"
     inkscape:snap-bbox-midpoints="true"
     inkscape:snap-bbox-edge-midpoints="true"
     inkscape:snap-intersection-paths="true"
     inkscape:object-paths="true"
     inkscape:snap-smooth-nodes="true"
     inkscape:snap-midpoints="true"
     inkscape:snap-page="true" />
  <defs
     id="defs11376">
    <clipPath
       id="clip2">
      <rect
         x="0"
         y="0"
         width="1227"
         height="2055"
         id="rect11362" />
    </clipPath>
    <g
       id="surface5"
       clip-path="url(#clip2)">
      <path
         style="fill:none;stroke:#000000;stroke-width:0.3;stroke-linecap:round;stroke-linejoin:round;stroke-miterlimit:10;stroke-opacity:1"
         d="m 19.634696,-694.6592 v 9.99904 l 9.311404,-3.64491 3.246658,8.29028 3.241146,8.28615 3.234255,8.27649 3.225988,8.26685 3.217719,8.25583 3.208073,8.24343 3.197048,8.22964 3.186025,8.21586 3.173622,8.19933 3.159841,8.18279 3.146061,8.16626 3.130903,8.14558 3.114366,8.12767 3.09783,8.10562 3.081294,8.08357 0.0041,0.01 3.057867,8.05188 0.0041,0.011 3.039952,8.02569 0.0041,0.011 3.017904,8.00227 0.0041,0.011 2.998611,7.97609 0.0041,0.011 2.976563,7.94852 0.0041,0.0124 2.953136,7.91958 0.0055,0.0138 2.928331,7.89065 0.0055,0.0138 2.904909,7.86171 0.006,0.0138 2.8801,7.83139 0.006,0.0152 2.85392,7.79832 0.006,0.0152 2.82773,7.76663 0.006,0.0165 2.79879,7.73355 0.007,0.0179 2.77124,7.6991 0.007,0.0179 2.74091,7.66465 0.007,0.0193 2.71198,7.62882 0.007,0.0207 2.68167,7.59299 0.007,0.0207 2.65134,7.55717 0.007,0.022 2.61827,7.51996 0.007,0.022 2.5852,7.48274 0.008,0.0221 2.55213,7.44554 0.008,0.0234 2.51629,7.40558 0.01,0.0248 2.48185,7.36699 0.008,0.0262 2.44739,7.32703 0.008,0.0262 2.41019,7.28707 0.01,0.0276 2.37435,7.24711 0.008,0.0289 2.33578,7.20714 0.011,0.0303 2.29719,7.16442 0.01,0.0317 2.2586,7.12446 0.011,0.0331 2.21864,7.08312 0.01,0.0331 2.18006,7.04177 0.01,0.0345 2.13871,7.00043 0.011,0.0372 2.09737,6.95909 0.011,0.0372 2.05465,6.91775 0.011,0.0386 2.01332,6.87503 0.011,0.0414 1.96922,6.83369 0.0124,0.0413 1.92512,6.79373 0.0124,0.0427 1.8824,6.75238 0.0124,0.0455 1.83692,6.71104 0.0124,0.0469 1.79145,6.67108 0.0124,0.0469 1.74597,6.63112 0.0138,0.0496 1.69912,6.59116 0.0138,0.051 1.65365,6.55119 0.0124,0.0524 1.60679,6.51261 0.0124,0.0551 1.55993,6.47402 0.0124,0.0565 1.5117,6.43682 0.0124,0.0565 1.46347,6.40098 0.0124,0.0593 1.41386,6.36378 0.0138,0.0606 1.36426,6.32795 0.0138,0.062 1.31465,6.2935 0.0138,0.0648 1.26504,6.25905 0.0138,0.0661 1.21405,6.22735 0.0138,0.0675 1.16444,6.19428 0.0124,0.0703 1.11345,6.16259 0.0124,0.0717 1.06247,6.13365 0.0124,0.073 1.01148,6.10471 0.0124,0.0744 0.95911,6.07715 0.011,0.0758 0.90675,6.05097 0.0124,0.0786 0.85438,6.02478 0.011,0.0799 0.80202,6.00135 0.01,0.0813 0.74965,5.97793 0.011,0.0827 0.6959,5.95726 0.01,0.0841 0.64354,5.93796 0.008,0.0854 0.5898,5.92005 0.008,0.0868 0.53606,5.90214 0.008,0.0882 0.48231,5.88698 0.007,0.0882 0.42995,5.8732 0.006,0.0896 0.37483,5.86217 0.006,0.09095 0.32108,5.849772 0.006,0.09095 0.26597,5.842882 0.004,0.09095 0.2136,5.834613 0.003,0.09233 0.15848,5.829102 0.001,0.09233 0.10473,5.824968 0.001,0.09233 0.0496,5.822211 0.001,0.09371 -0.004,5.820833 -0.001,0.09371 -0.0579,5.822211 -0.001,0.09371 -0.113,5.824967 -0.003,0.09233 -0.16675,5.829102 -0.003,0.09233 -0.22187,5.835992 -0.004,0.09233 -0.27561,5.842882 -0.004,0.09095 -0.32935,5.852528 -0.006,0.08957 -0.3831,5.863552 -0.007,0.08957 -0.43684,5.875954 -0.007,0.0882 -0.49196,5.889735 -0.007,0.086816 -0.5457,5.906272 -9.9577,-0.919151278 V 10.000631 H -193.31906 V 2.07722e-4 l -9.9577,0.919151278 -0.54433,-5.906272 -0.008,-0.086816 -0.49058,-5.889735 -0.007,-0.0882 -0.43821,-5.875954 -0.006,-0.08957 -0.38447,-5.863552 -0.004,-0.08957 -0.33073,-5.852528 -0.004,-0.09095 -0.2756,-5.842882 -0.004,-0.09233 -0.22048,-5.835992 -0.004,-0.09233 -0.16674,-5.829102 -0.003,-0.09233 -0.11162,-5.824967 -0.001,-0.09371 -0.0592,-5.822211 v -0.09371 l -0.004,-5.820833 v -0.09371 l 0.0496,-5.822211 0.001,-0.09233 0.10473,-5.824968 0.001,-0.09233 0.15985,-5.829102 0.003,-0.09233 0.21222,-5.834613 0.004,-0.09095 0.26734,-5.842882 0.004,-0.09095 0.32108,-5.849772 0.006,-0.09095 0.37483,-5.86217 0.007,-0.0896 0.42857,-5.8732 0.007,-0.0882 0.48231,-5.88698 0.008,-0.0882 0.53606,-5.90214 0.008,-0.0868 0.5898,-5.92005 0.01,-0.0854 0.64354,-5.93796 0.008,-0.0841 0.69729,-5.95726 0.01,-0.0827 0.74965,-5.97793 0.011,-0.0813 0.80202,-6.00135 0.011,-0.0799 0.85438,-6.02478 0.011,-0.0786 0.90675,-6.05097 0.0124,-0.0758 0.95912,-6.07715 0.0124,-0.0744 1.0101,-6.10471 0.0124,-0.073 1.06246,-6.13365 0.0124,-0.0717 1.11345,-6.16259 0.0138,-0.0703 1.16444,-6.19428 0.0124,-0.0675 1.21543,-6.22735 0.0124,-0.0661 1.26504,-6.25905 0.0138,-0.0648 1.31465,-6.2935 0.0138,-0.062 1.36425,-6.32795 0.0138,-0.0606 1.41387,-6.36378 0.0138,-0.0593 1.4621,-6.40098 0.0138,-0.0565 1.51033,-6.43682 0.0138,-0.0565 1.55856,-6.47402 0.0138,-0.0551 1.60542,-6.51261 0.0138,-0.0524 1.65364,-6.55119 0.0124,-0.051 1.70049,-6.59116 0.0124,-0.0496 1.74597,-6.63112 0.0124,-0.0469 1.79283,-6.67108 0.0124,-0.0469 1.83693,-6.71104 0.0124,-0.0455 1.88102,-6.75238 0.0124,-0.0427 1.92512,-6.79373 0.0124,-0.0413 1.96921,-6.83369 0.0124,-0.0414 2.01193,-6.87503 0.011,-0.0386 2.05603,-6.91775 0.011,-0.0372 2.096,-6.95909 0.011,-0.0372 2.13872,-7.00043 0.011,-0.0345 2.17868,-7.04177 0.011,-0.0331 2.21864,-7.08312 0.01,-0.0331 2.25861,-7.12446 0.011,-0.0317 2.29719,-7.16442 0.01,-0.0303 2.33577,-7.20714 0.01,-0.0289 2.37298,-7.24711 0.01,-0.0276 2.41019,-7.28707 0.01,-0.0262 2.44602,-7.32703 0.008,-0.0262 2.48322,-7.36699 0.008,-0.0248 2.51768,-7.40558 0.008,-0.0234 2.55074,-7.44554 0.008,-0.0221 2.5852,-7.48274 0.008,-0.022 2.61689,-7.51996 0.008,-0.022 2.64997,-7.55717 0.007,-0.0207 2.68166,-7.59299 0.007,-0.0207 2.71198,-7.62882 0.007,-0.0193 2.7423,-7.66465 0.007,-0.0179 2.76986,-7.6991 0.007,-0.0179 2.79879,-7.73355 0.007,-0.0165 2.82636,-7.76663 0.007,-0.0152 2.85254,-7.79832 0.007,-0.0152 2.87872,-7.83139 0.006,-0.0138 2.904906,-7.86171 0.0055,-0.0138 2.929709,-7.89065 0.0041,-0.0138 2.953136,-7.91958 0.0055,-0.0124 2.975185,-7.94852 0.0055,-0.011 2.997233,-7.97609 0.0041,-0.011 3.019282,-8.00227 0.0041,-0.011 3.038574,-8.02569 0.0041,-0.011 3.059245,-8.05188 0.0028,-0.01 3.077159,-8.07392 3.099208,-8.107 3.115745,-8.12767 3.130902,-8.14696 3.146062,-8.16488 3.159841,-8.18417 3.173622,-8.2007 3.186025,-8.21587 3.197048,-8.22964 3.208073,-8.24481 3.217719,-8.25582 3.225988,-8.26685 3.234255,-8.27788 3.241146,-8.28614 3.248036,-8.29304 9.311404,3.64491 v -9.99904 z m 0,0"
         transform="matrix(2.834646,0,0,2.834646,613.26056,1997.4603)"
         id="path11365" />
      <path
         style="fill:none;stroke:#ff0000;stroke-width:0.3;stroke-linecap:round;stroke-linejoin:round;stroke-miterlimit:10;stroke-opacity:1"
         d="m 193.3185,2.07722e-4 0.5457,-5.904893722 0.49058,-5.889735 0.43684,-5.875955 0.38447,-5.862175 0.32935,-5.852528 0.27561,-5.842882 0.22049,-5.835991 0.16812,-5.829102 0.11162,-5.824967 0.0592,-5.822212 0.004,-5.820833 -0.0496,-5.822212 -0.10473,-5.824967 -0.15848,-5.827723 -0.21359,-5.834614 -0.26597,-5.841504 -0.32108,-5.85115 -0.3762,-5.860794 -0.42857,-5.8732 -0.48231,-5.88698 -0.53744,-5.90352 -0.5898,-5.91867 -0.64354,-5.93797 -0.69591,-5.95726 -0.74966,-5.9793 -0.80201,-6.00136 -0.85439,-6.02478 -0.90675,-6.05097 -0.95911,-6.07715 -1.01148,-6.10471 -1.06247,-6.13364 -1.11345,-6.16259 -1.16445,-6.19428 -1.21543,-6.22736 -1.26503,-6.25905 -1.31465,-6.2935 -1.36564,-6.32795 -1.41387,-6.36378 -1.4621,-6.40099 -1.51033,-6.43681 -1.55993,-6.47541 -1.60542,-6.5126 -1.65365,-6.55257 -1.70049,-6.59116 -1.74598,-6.63112 -1.79283,-6.67108 -1.83692,-6.71243 -1.88102,-6.75238 -1.9265,-6.79235 -1.96922,-6.83508 -2.01193,-6.87641 -2.05466,-6.91775 -2.09737,-6.95909 -2.13872,-7.00043 -2.17868,-7.04178 -2.21864,-7.08312 -2.2586,-7.12445 -2.29857,-7.1658 -2.33577,-7.20576 -2.37299,-7.24711 -2.41019,-7.28706 -2.44739,-7.32703 -2.48185,-7.36699 -2.51767,-7.40558 -2.55213,-7.44416 -2.5852,-7.48137 -2.61689,-7.51996 -2.64997,-7.55854 -2.68166,-7.59299 -2.71198,-7.63019 -2.7423,-7.66465 -2.77123,-7.6991 -2.798799,-7.73355 -2.827735,-7.76525 -2.853917,-7.79969 -2.880099,-7.83002 -2.904905,-7.86033 -2.928331,-7.89064 -2.953136,-7.92097 -2.976563,-7.94714 -2.997233,-7.97609 -3.019281,-8.00089 -3.038574,-8.02707 -3.059245,-8.0505 -3.07716,-8.0753 -3.095073,-8.09736 -3.111611,-8.11802 -3.128146,-8.13869 -3.143305,-8.15937 -3.157086,-8.1759 -3.170866,-8.19381 -3.183268,-8.20898 -3.195671,-8.22551 -3.205316,-8.23791 -3.216342,-8.25169 -3.224609,-8.26272 -3.232878,-8.27374 -3.239767,-8.28201 -3.246658,-8.29166 h -39.269955 l -3.246658,8.29166 -3.239768,8.28201 -3.232877,8.27374 -3.22461,8.26272 -3.216341,8.25169 -3.205317,8.23791 -3.194292,8.22551 -3.184646,8.20898 -3.170866,8.19381 -3.157086,8.1759 -3.143305,8.15937 -3.126768,8.13869 -3.112989,8.11802 -3.095074,8.09736 -3.077159,8.0753 -3.057867,8.0505 -3.039952,8.02707 -3.017904,8.00089 -2.998611,7.97609 -2.975184,7.94714 -2.953136,7.92097 -2.929709,7.89064 -2.904905,7.86033 -2.880099,7.83002 -2.853918,7.79969 -2.826356,7.76525 -2.800174,7.73355 -2.76986,7.6991 -2.74229,7.66465 -2.71198,7.63019 -2.68166,7.59299 -2.64997,7.55854 -2.61827,7.51996 -2.5852,7.48137 -2.55213,7.44416 -2.5163,7.40558 -2.48322,7.36699 -2.44602,7.32703 -2.41157,7.28706 -2.37298,7.24711 -2.33577,7.20576 -2.29719,7.1658 -2.25861,7.12445 -2.22002,7.08312 -2.17868,7.04178 -2.13871,7.00043 -2.096,6.95909 -2.05465,6.91775 -2.01332,6.87641 -1.96921,6.83508 -1.92512,6.79235 -1.8824,6.75238 -1.83693,6.71243 -1.79145,6.67108 -1.74735,6.63112 -1.69912,6.59116 -1.65365,6.55257 -1.60679,6.5126 -1.55856,6.47541 -1.51171,6.43681 -1.4621,6.40099 -1.41386,6.36378 -1.36426,6.32795 -1.31603,6.2935 -1.26504,6.25905 -1.21543,6.22736 -1.16444,6.19428 -1.11345,6.16259 -1.06247,6.13364 -1.0101,6.10471 -0.95912,6.07715 -0.90675,6.05097 -0.85576,6.02478 -0.80202,6.00136 -0.74965,5.9793 -0.69591,5.95726 -0.64354,5.93797 -0.5898,5.91867 -0.53606,5.90352 -0.48369,5.88698 -0.42857,5.8732 -0.37483,5.860794 -0.32108,5.85115 -0.26734,5.841504 -0.21222,5.834614 -0.15985,5.827723 -0.10335,5.824967 -0.051,5.822212 0.004,5.820833 0.0593,5.822212 0.113,5.824967 0.16674,5.829102 0.22187,5.835991 0.2756,5.842882 0.32935,5.852528 0.3831,5.862175 0.43684,5.875955 0.49196,5.889735 0.54432,5.904893722 z m 0,0"
         transform="matrix(2.834646,0,0,2.834646,613.26056,1997.4603)"
         id="path11367" />
    </g>
    <clipPath
       id="clip1">
      <rect
         x="0"
         y="0"
         width="1227"
         height="2055"
         id="rect11370" />
    </clipPath>
    <g
       id="surface9"
       clip-path="url(#clip1)">
      <use
         xlink:href="#surface5"
         id="use11373"
         x="0"
         y="0"
         width="100%"
         height="100%" />
    </g>
    <clipPath
       clipPathUnits="userSpaceOnUse"
       id="clipPath11729">
      <rect
         style="fill:none;stroke:#ff0000;stroke-width:0.826665;stroke-miterlimit:4;stroke-dasharray:none"
         id="rect11731"
         width="87.874016"
         height="87.874016"
         x="629.29132"
         y="6.7861414" />
    </clipPath>
  </defs>
  <g
     id="surface6"
     transform="translate(-629.29135,-6.7861414)"
     clip-path="url(#clipPath11729)">
    <use
       xlink:href="#surface9"
       id="use11378"
       x="0"
       y="0"
       width="100%"
       height="100%" />
  </g>
</svg>
